<svg aria-hidden="true" style="position: absolute; width: 0; height: 0; overflow: hidden;" version="1.1" xmlns="http://www.w3.org/2000/svg" xmlns:xlink="http://www.w3.org/1999/xlink">
<defs>
<symbol id="icon-user" viewBox="0 0 32 32">
<path d="M18.869 8.579c-0.312 0-0.571-0.106-0.778-0.317s-0.31-0.473-0.31-0.783c0-0.31 0.103-0.57 0.31-0.779s0.466-0.313 0.778-0.313h9.6c0.31 0 0.57 0.106 0.78 0.317s0.315 0.474 0.315 0.786c0 0.311-0.105 0.57-0.315 0.777s-0.47 0.311-0.78 0.311h-9.6zM18.869 14c-0.312 0-0.571-0.106-0.778-0.317s-0.31-0.473-0.31-0.785c0-0.312 0.103-0.57 0.31-0.774s0.466-0.307 0.778-0.307h9.6c0.31 0 0.57 0.104 0.78 0.312s0.315 0.468 0.315 0.782c0 0.312-0.105 0.571-0.315 0.778s-0.47 0.311-0.78 0.311h-9.6zM18.869 19.421c-0.308 0-0.567-0.105-0.775-0.314s-0.313-0.468-0.313-0.778c0-0.309 0.104-0.567 0.313-0.774s0.467-0.31 0.775-0.31h9.6c0.31 0 0.57 0.105 0.78 0.314s0.315 0.468 0.315 0.778c0 0.309-0.105 0.567-0.315 0.774s-0.47 0.31-0.78 0.31h-9.6zM10.616 18.567c-1.185 0-2.165-0.39-2.942-1.171s-1.165-1.763-1.165-2.948c0-1.185 0.39-2.167 1.169-2.946s1.76-1.168 2.942-1.168c1.185 0 2.167 0.39 2.946 1.17s1.169 1.762 1.169 2.946c0 1.186-0.39 2.169-1.171 2.948s-1.763 1.169-2.948 1.169zM2.443 25.89v-1.24c0-0.45 0.108-0.878 0.323-1.284s0.503-0.696 0.864-0.867c1.011-0.722 2.118-1.258 3.322-1.607s2.426-0.525 3.665-0.525c1.239 0 2.455 0.192 3.649 0.575s2.31 0.902 3.348 1.557c0.339 0.238 0.622 0.543 0.848 0.915s0.34 0.784 0.34 1.237v1.24c0 0.326-0.109 0.598-0.328 0.816s-0.488 0.327-0.808 0.327h-14.088c-0.32 0-0.59-0.109-0.808-0.327s-0.327-0.49-0.327-0.816zM4.452 24.483v0.367h12.333v-0.367c-0.867-0.578-1.867-1.044-3-1.4s-2.189-0.533-3.167-0.533c-0.978 0-2.039 0.178-3.183 0.533s-2.139 0.822-2.983 1.4zM10.619 16.383c0.578 0 1.044-0.179 1.4-0.537s0.533-0.824 0.533-1.396c0-0.578-0.178-1.044-0.533-1.4s-0.822-0.533-1.4-0.533c-0.578 0-1.044 0.178-1.4 0.533s-0.533 0.822-0.533 1.4c0 0.572 0.178 1.038 0.533 1.396s0.822 0.537 1.4 0.537z"></path>
</symbol>
<symbol id="icon-hand" viewBox="0 0 32 32">
<path d="M13.403 30.866c-0.613 0-1.2-0.143-1.76-0.429s-1.007-0.69-1.34-1.211l-8.068-12.069c-0.133-0.205-0.175-0.434-0.125-0.687s0.168-0.456 0.354-0.612c0.401-0.333 0.861-0.544 1.379-0.633s1.050 0.071 1.593 0.479l3.817 2.911v-13.727c0-0.303 0.105-0.559 0.315-0.767s0.467-0.313 0.772-0.313c0.305 0 0.56 0.104 0.765 0.313s0.307 0.464 0.307 0.767v15.536c0 0.481-0.209 0.822-0.626 1.024s-0.814 0.164-1.19-0.112l-3.833-2.804 6.331 9.479c0.151 0.229 0.337 0.402 0.557 0.519s0.469 0.176 0.748 0.176h9.728c0.824 0 1.517-0.281 2.078-0.842s0.842-1.254 0.842-2.078v-19.581c0-0.303 0.105-0.559 0.315-0.767s0.467-0.313 0.773-0.313c0.305 0 0.56 0.104 0.765 0.313s0.307 0.464 0.307 0.767v19.581c0 1.421-0.491 2.623-1.474 3.606s-2.185 1.474-3.606 1.474h-9.724zM15.944 1.094c0.305 0 0.561 0.104 0.767 0.312s0.309 0.464 0.309 0.767v12.826c0 0.303-0.105 0.559-0.315 0.767s-0.467 0.312-0.773 0.312c-0.305 0-0.559-0.104-0.761-0.312s-0.303-0.464-0.303-0.767v-12.826c0-0.303 0.103-0.559 0.309-0.767s0.462-0.312 0.767-0.312zM21.56 2.459c0.302 0 0.556 0.104 0.76 0.313s0.306 0.464 0.306 0.767v11.461c0 0.303-0.104 0.559-0.313 0.767s-0.465 0.312-0.768 0.312c-0.304 0-0.558-0.104-0.763-0.312s-0.307-0.464-0.307-0.767v-11.461c0-0.303 0.105-0.559 0.314-0.767s0.467-0.313 0.772-0.313z"></path>
</symbol>
<symbol id="icon-night" viewBox="0 0 32 32">
<path d="M17.467 30.786h-3.93l0.376-0.357c0.251-0.238 0.527-0.495 0.828-0.771s0.577-0.533 0.827-0.771l0.376-0.357h1.367c2.145 0.021 4.14-0.59 5.985-1.834s3.303-2.792 4.375-4.644c-1.968-0.199-3.861-0.672-5.679-1.419s-3.422-1.813-4.812-3.197c-1.395-1.379-2.461-2.97-3.197-4.774s-1.206-3.679-1.411-5.625c-1.849 1.056-3.375 2.46-4.577 4.211s-1.814 3.69-1.836 5.816v0.383c0 0.141 0.011 0.266 0.033 0.376l-0.345 0.132c-0.23 0.088-0.486 0.179-0.766 0.275s-0.536 0.187-0.766 0.275l-0.345 0.132c-0.038-0.278-0.062-0.532-0.073-0.762s-0.017-0.454-0.017-0.674c0-3.061 0.892-5.758 2.675-8.091s4.111-3.944 6.983-4.831c0.199-0.050 0.386-0.062 0.56-0.037s0.325 0.097 0.452 0.216 0.235 0.26 0.323 0.421c0.088 0.162 0.124 0.346 0.107 0.553-0.112 1.985 0.139 3.862 0.753 5.632s1.632 3.363 3.055 4.781c1.469 1.473 3.059 2.496 4.769 3.068s3.585 0.819 5.626 0.74c0.2-0.012 0.385 0.031 0.553 0.128s0.313 0.21 0.435 0.34 0.188 0.286 0.199 0.469c0.011 0.182-0.019 0.376-0.091 0.58-0.995 2.917-2.574 5.249-4.739 6.996s-4.855 2.621-8.072 2.621zM8 28.507h6c0.703 0 1.301-0.243 1.793-0.73s0.738-1.082 0.738-1.785-0.241-1.303-0.722-1.797c-0.482-0.494-1.065-0.742-1.75-0.742h-1.386l-0.533-1.254c-0.361-0.833-0.913-1.498-1.658-1.994s-1.561-0.747-2.449-0.752c-1.246 0-2.318 0.444-3.216 1.332s-1.347 1.953-1.347 3.197c0 1.261 0.44 2.33 1.321 3.209s1.951 1.317 3.21 1.317zM8 30.786c-1.879 0-3.483-0.664-4.811-1.991s-1.992-2.932-1.992-4.814 0.664-3.488 1.992-4.816c1.328-1.328 2.931-1.992 4.811-1.992 1.345 0 2.576 0.362 3.691 1.087s1.947 1.698 2.497 2.921c1.283 0.066 2.372 0.559 3.269 1.481s1.345 2.029 1.345 3.321c0 1.324-0.47 2.455-1.409 3.394s-2.070 1.409-3.394 1.409h-6z"></path>
</symbol>
<symbol id="icon-pass" viewBox="0 0 32 32">
<path d="M7.446 26.85c-0.635 0-1.176-0.223-1.624-0.67s-0.672-0.985-0.672-1.616c0-0.633 0.224-1.174 0.672-1.623s0.989-0.674 1.624-0.674c0.123 0 0.241 0.008 0.353 0.025s0.229 0.047 0.352 0.091l5.678-5.678c-0.149-0.399-0.17-0.811-0.063-1.235s0.311-0.79 0.611-1.097c0.3-0.307 0.664-0.512 1.091-0.615s0.839-0.079 1.238 0.070l5.644-5.644c-0.022-0.128-0.042-0.252-0.058-0.374s-0.025-0.244-0.025-0.365c0-0.635 0.223-1.176 0.668-1.624s0.985-0.672 1.618-0.672c0.633 0 1.174 0.223 1.623 0.67s0.674 0.985 0.674 1.616c0 0.633-0.224 1.174-0.672 1.623s-0.989 0.674-1.624 0.674c-0.182 0-0.439-0.028-0.772-0.083l-5.611 5.611c0.127 0.421 0.145 0.845 0.053 1.272s-0.29 0.793-0.597 1.099c-0.32 0.326-0.694 0.529-1.12 0.609s-0.862 0.057-1.305-0.070l-5.383 5.383h4.108c0.184-0.399 0.463-0.713 0.836-0.943s0.779-0.345 1.215-0.345c0.457 0 0.872 0.115 1.246 0.345s0.654 0.544 0.841 0.943h4.425c0.212-0.402 0.501-0.717 0.865-0.945s0.764-0.343 1.197-0.343c0.635 0 1.176 0.223 1.624 0.668s0.672 0.985 0.672 1.618c0 0.633-0.224 1.174-0.672 1.623s-0.989 0.674-1.624 0.674c-0.444 0-0.853-0.115-1.226-0.344s-0.652-0.547-0.836-0.952h-4.418c-0.191 0.399-0.474 0.715-0.849 0.947s-0.783 0.349-1.225 0.349c-0.444 0-0.854-0.115-1.23-0.344s-0.656-0.547-0.841-0.952h-4.414c-0.188 0.404-0.469 0.721-0.843 0.951s-0.783 0.345-1.228 0.345zM7.447 18.288c-0.631 0-1.171-0.222-1.622-0.667s-0.676-0.982-0.676-1.614c0-0.632 0.223-1.172 0.669-1.621s0.984-0.674 1.614-0.674 1.171 0.223 1.622 0.668c0.452 0.445 0.678 0.983 0.678 1.614s-0.224 1.171-0.672 1.62c-0.448 0.449-0.986 0.674-1.614 0.674zM7.444 9.733c-0.63 0-1.17-0.223-1.619-0.668s-0.675-0.985-0.675-1.618c0-0.633 0.223-1.174 0.67-1.623s0.985-0.674 1.616-0.674c0.633 0 1.174 0.223 1.623 0.669s0.674 0.984 0.674 1.614c0 0.63-0.224 1.171-0.672 1.623s-0.987 0.678-1.617 0.678zM16.006 9.733c-0.631 0-1.171-0.224-1.62-0.672s-0.674-0.986-0.674-1.614c0-0.631 0.222-1.171 0.667-1.622s0.982-0.676 1.614-0.676c0.632 0 1.172 0.223 1.621 0.669s0.674 0.984 0.674 1.614-0.223 1.171-0.668 1.622c-0.445 0.452-0.983 0.678-1.614 0.678zM24.567 18.288c-0.63 0-1.171-0.223-1.622-0.668s-0.678-0.983-0.678-1.614 0.224-1.171 0.672-1.62c0.448-0.449 0.986-0.674 1.614-0.674 0.631 0 1.171 0.222 1.622 0.667s0.676 0.982 0.676 1.614c0 0.632-0.223 1.172-0.669 1.621s-0.984 0.674-1.614 0.674z"></path>
</symbol>
<symbol id="icon-instagram" viewBox="0 0 32 32">
<path d="M16.006 6.488c3.206 0 3.585 0.014 4.846 0.070 1.172 0.052 1.804 0.248 2.227 0.412 0.558 0.216 0.961 0.478 1.378 0.895 0.422 0.422 0.679 0.82 0.9 1.378 0.164 0.422 0.361 1.059 0.412 2.226 0.056 1.266 0.071 1.645 0.071 4.847s-0.014 3.585-0.071 4.847c-0.052 1.172-0.248 1.804-0.412 2.227-0.216 0.558-0.478 0.961-0.895 1.378-0.422 0.422-0.82 0.679-1.377 0.9-0.422 0.164-1.060 0.361-2.227 0.412-1.266 0.056-1.645 0.071-4.847 0.071s-3.585-0.014-4.847-0.071c-1.172-0.052-1.804-0.248-2.226-0.412-0.558-0.216-0.961-0.478-1.378-0.895-0.422-0.422-0.679-0.82-0.9-1.377-0.164-0.422-0.361-1.060-0.412-2.227-0.056-1.266-0.071-1.645-0.071-4.847s0.014-3.585 0.071-4.847c0.052-1.172 0.248-1.804 0.412-2.226 0.216-0.558 0.478-0.961 0.895-1.378 0.422-0.422 0.82-0.679 1.378-0.9 0.422-0.164 1.059-0.361 2.226-0.412 1.261-0.056 1.641-0.070 4.847-0.070h0.001zM16.006 4.328c-3.258 0-3.665 0.014-4.945 0.071-1.275 0.056-2.151 0.262-2.91 0.558-0.792 0.309-1.462 0.717-2.127 1.387-0.67 0.666-1.078 1.336-1.387 2.123-0.295 0.764-0.502 1.636-0.558 2.91-0.056 1.285-0.071 1.692-0.071 4.949s0.014 3.665 0.071 4.945c0.056 1.275 0.262 2.151 0.558 2.91 0.31 0.792 0.717 1.462 1.387 2.127 0.665 0.665 1.336 1.078 2.123 1.383 0.764 0.295 1.636 0.502 2.91 0.558 1.279 0.056 1.687 0.071 4.945 0.071s3.665-0.014 4.945-0.071c1.275-0.056 2.151-0.262 2.91-0.558 0.787-0.305 1.458-0.717 2.123-1.383s1.078-1.336 1.383-2.123c0.295-0.764 0.502-1.636 0.558-2.91 0.056-1.279 0.070-1.687 0.070-4.945s-0.014-3.665-0.070-4.945c-0.056-1.275-0.263-2.151-0.558-2.91-0.295-0.797-0.703-1.467-1.373-2.133-0.665-0.665-1.336-1.078-2.123-1.383-0.764-0.295-1.636-0.502-2.91-0.558-1.284-0.061-1.692-0.075-4.949-0.075l-0.001 0.001z"></path>
<path d="M16.006 10.163c-3.402 0-6.163 2.76-6.163 6.163s2.76 6.163 6.163 6.163 6.163-2.76 6.163-6.163c0-3.402-2.76-6.163-6.163-6.163zM16.006 20.324c-2.208 0-3.998-1.79-3.998-3.998s1.79-3.998 3.998-3.998 3.998 1.79 3.998 3.998c0 2.208-1.79 3.998-3.998 3.998z"></path>
<path d="M23.851 9.92c0 0.795-0.644 1.439-1.439 1.439s-1.439-0.644-1.439-1.439c0-0.795 0.644-1.439 1.439-1.439s1.439 0.644 1.439 1.439z"></path>
</symbol>
<symbol id="icon-x" viewBox="0 0 32 32">
<path d="M22.901 5.656h3.68l-8.040 9.037 9.459 12.297h-7.406l-5.801-7.458-6.637 7.458h-3.682l8.6-9.666-9.074-11.668h7.594l5.243 6.817 6.064-6.817zM21.61 24.823h2.039l-13.163-17.115h-2.188l13.312 17.115z"></path>
</symbol>
<symbol id="icon-youtube" viewBox="0 0 32 32">
<path d="M28.79 9.604c-0.152-0.563-0.449-1.077-0.861-1.49s-0.925-0.711-1.489-0.864c-2.088-0.573-10.441-0.583-10.441-0.583s-8.352-0.009-10.441 0.539c-0.563 0.16-1.075 0.462-1.487 0.878s-0.711 0.929-0.867 1.493c-0.551 2.088-0.556 6.419-0.556 6.419s-0.005 4.352 0.541 6.419c0.307 1.143 1.207 2.045 2.351 2.353 2.109 0.573 10.44 0.583 10.44 0.583s8.353 0.009 10.441-0.537c0.563-0.153 1.077-0.45 1.49-0.862s0.712-0.925 0.866-1.488c0.552-2.087 0.556-6.416 0.556-6.416s0.027-4.353-0.543-6.441zM13.328 20.007l0.007-8 6.943 4.007-6.949 3.993z"></path>
</symbol>
<symbol id="icon-logo" viewBox="0 0 35 32">
<path d="M6.803 0.147c-0.197-0.197-0.515-0.197-0.712 0l-2.616 2.616-2.616-2.616c-0.197-0.197-0.515-0.197-0.712 0s-0.197 0.515 0 0.712l2.616 2.616-2.616 2.616c-0.197 0.197-0.197 0.515 0 0.712 0.098 0.098 0.227 0.147 0.356 0.147s0.258-0.049 0.356-0.147l2.616-2.616 2.616 2.616c0.098 0.098 0.227 0.147 0.356 0.147s0.258-0.049 0.356-0.147c0.197-0.197 0.197-0.515 0-0.712l-2.616-2.616 2.616-2.616c0.197-0.196 0.197-0.515 0-0.712z"></path>
<path d="M6.803 10.024c-0.197-0.197-0.515-0.197-0.712 0l-2.616 2.616-2.616-2.616c-0.197-0.197-0.515-0.197-0.712 0s-0.197 0.515 0 0.712l2.616 2.616-2.616 2.616c-0.197 0.196-0.197 0.515 0 0.712 0.098 0.098 0.227 0.147 0.356 0.147s0.258-0.049 0.356-0.147l2.616-2.616 2.616 2.616c0.098 0.098 0.227 0.147 0.356 0.147s0.258-0.049 0.356-0.147c0.197-0.197 0.197-0.515 0-0.712l-2.616-2.616 2.616-2.616c0.196-0.196 0.196-0.515-0-0.712z"></path>
<path d="M6.803 19.901c-0.197-0.196-0.515-0.196-0.712 0l-2.616 2.616-2.616-2.616c-0.197-0.196-0.515-0.196-0.712 0s-0.197 0.515 0 0.712l2.616 2.616-2.616 2.616c-0.197 0.197-0.197 0.515 0 0.712 0.098 0.098 0.227 0.148 0.356 0.148s0.258-0.049 0.356-0.148l2.616-2.616 2.616 2.616c0.098 0.098 0.227 0.148 0.356 0.148s0.258-0.049 0.356-0.148c0.197-0.196 0.197-0.515 0-0.712l-2.616-2.616 2.616-2.616c0.196-0.196 0.196-0.515-0-0.712z"></path>
<path d="M10.235 6.803c0.098 0.098 0.227 0.147 0.356 0.147s0.258-0.049 0.356-0.147l2.616-2.616 2.616 2.616c0.098 0.098 0.227 0.147 0.356 0.147s0.258-0.049 0.356-0.147c0.197-0.197 0.197-0.515 0-0.712l-2.616-2.616 2.616-2.616c0.197-0.197 0.197-0.515 0-0.712s-0.515-0.197-0.712 0l-2.616 2.616-2.616-2.616c-0.197-0.197-0.515-0.197-0.712 0s-0.197 0.515 0 0.712l2.616 2.616-2.616 2.616c-0.197 0.196-0.197 0.515-0 0.712z"></path>
<path d="M20.322 6.803c0.098 0.098 0.227 0.147 0.356 0.147s0.258-0.049 0.356-0.147l2.616-2.616 2.616 2.616c0.098 0.098 0.227 0.147 0.356 0.147s0.258-0.049 0.356-0.147c0.197-0.197 0.197-0.515 0-0.712l-2.616-2.616 2.616-2.616c0.197-0.197 0.197-0.515 0-0.712s-0.515-0.197-0.712 0l-2.616 2.616-2.616-2.616c-0.197-0.197-0.515-0.197-0.712 0s-0.197 0.515 0 0.712l2.616 2.616-2.616 2.616c-0.197 0.196-0.197 0.515-0 0.712z"></path>
<path d="M10.235 16.68c0.098 0.098 0.227 0.147 0.356 0.147s0.258-0.049 0.356-0.147l2.616-2.616 2.616 2.616c0.098 0.098 0.227 0.147 0.356 0.147s0.258-0.049 0.356-0.147c0.197-0.197 0.197-0.515 0-0.712l-2.616-2.616 2.616-2.616c0.197-0.197 0.197-0.515 0-0.712s-0.515-0.197-0.712 0l-2.616 2.616-2.616-2.616c-0.197-0.197-0.515-0.197-0.712 0s-0.197 0.515 0 0.712l2.616 2.616-2.616 2.616c-0.197 0.196-0.197 0.515-0 0.712z"></path>
<path d="M34.207 3.725c-0.184-0.184-0.479-0.197-0.679-0.030l-21.125 17.664-1.457-1.457c-0.197-0.196-0.515-0.196-0.712 0s-0.196 0.515 0 0.712l1.394 1.394-0.465 0.388c-0.667 0.557-1.071 1.375-1.11 2.243s0.292 1.718 0.906 2.333c0.582 0.582 1.376 0.909 2.196 0.909 0.046 0 0.091-0.001 0.137-0.003 0.868-0.039 1.686-0.443 2.243-1.11l0.389-0.465 1.045 1.045c0.602 0.602 1.393 0.903 2.184 0.903s1.582-0.301 2.184-0.903l2.642-2.642c0.393-0.393 0.916-0.61 1.472-0.61s1.079 0.217 1.472 0.61l0.753 0.753c0.196 0.197 0.515 0.196 0.712 0s0.197-0.515-0-0.712l-0.753-0.753c-1.204-1.204-3.164-1.204-4.368 0l-2.642 2.642c-0.812 0.812-2.133 0.812-2.945 0l-1.108-1.108 3.245-3.88c0.178-0.213 0.15-0.531-0.063-0.709s-0.531-0.15-0.709 0.063l-3.187 3.811-1.014-1.014 0.435-0.435c0.197-0.197 0.197-0.515 0-0.712s-0.515-0.197-0.712 0l-1.576 1.576c-0.197 0.197-0.197 0.515 0 0.712 0.098 0.098 0.227 0.148 0.356 0.148s0.258-0.049 0.356-0.148l0.429-0.429 1.078 1.078-0.446 0.534c-0.382 0.457-0.921 0.723-1.516 0.75-0.594 0.026-1.155-0.191-1.577-0.612s-0.639-0.981-0.612-1.577c0.026-0.595 0.293-1.133 0.75-1.516l18.037-15.083-9.291 11.111c-0.178 0.213-0.15 0.531 0.063 0.709s0.531 0.15 0.709-0.063l12.909-15.438c0.167-0.2 0.154-0.494-0.030-0.679z"></path>
<path d="M30.053 26.413c-0.197-0.197-0.515-0.197-0.712 0s-0.197 0.515 0 0.712l3.984 3.984c0.098 0.098 0.227 0.147 0.356 0.147s0.258-0.049 0.356-0.147c0.197-0.197 0.197-0.515 0-0.712l-3.984-3.984z"></path>
</symbol>
</defs>
</svg>
